<svg width="21" height="20" viewBox="0 0 21 20" fill="none" xmlns="http://www.w3.org/2000/svg">
<path d="M18.2876 4.93536C17.6921 5.19154 17.0441 5.37591 16.3765 5.44771C17.0696 5.03713 17.5886 4.38847 17.8361 3.62343C17.1858 4.00923 16.4734 4.27975 15.7304 4.42301C15.4199 4.09198 15.0444 3.82826 14.6272 3.64829C14.21 3.46832 13.7601 3.37596 13.3056 3.37696C11.4665 3.37696 9.98744 4.86356 9.98744 6.68784C9.98744 6.94401 10.0186 7.20019 10.0692 7.44666C7.31542 7.30305 4.85942 5.99112 3.22663 3.98247C2.92912 4.48922 2.77321 5.06622 2.77513 5.65343C2.77513 6.80234 3.36092 7.8154 4.25418 8.4112C3.72777 8.39053 3.21368 8.24624 2.75373 7.99006V8.03082C2.75373 9.63968 3.89415 10.973 5.41407 11.2796C5.12869 11.3535 4.83511 11.3913 4.54026 11.3922C4.32424 11.3922 4.1199 11.3708 3.91361 11.3417C4.33397 12.6536 5.55808 13.6065 7.01572 13.6376C5.8753 14.5284 4.44685 15.0524 2.89579 15.0524C2.6175 15.0524 2.36061 15.0427 2.09399 15.0116C3.56526 15.9529 5.31092 16.4963 7.19087 16.4963C13.2939 16.4963 16.6334 11.4543 16.6334 7.07792C16.6334 6.93431 16.6334 6.7907 16.6237 6.64708C17.2698 6.17549 17.8361 5.59133 18.2876 4.93536Z" fill="white"/>
</svg>
