<svg width="21" height="20" viewBox="0 0 21 20" fill="none" xmlns="http://www.w3.org/2000/svg">
<g clip-path="url(#clip0_1_296)">
<path d="M8.95924 0H7.83828L7.09097 2.85675L6.34366 0H5.09814C5.34725 0.745238 5.59635 1.36627 5.84545 2.11151C6.21911 3.10516 6.46821 3.9746 6.46821 4.47143V7.45238H7.58917V4.47143L8.95924 0ZM11.9485 5.58929V3.72619C11.9485 3.10516 11.8239 2.73254 11.5748 2.35992C11.3257 1.9873 10.9521 1.8631 10.4539 1.8631C9.95565 1.8631 9.582 2.11151 9.33289 2.48413C9.08379 2.73254 8.95924 3.10516 8.95924 3.72619V5.71349C8.95924 6.33452 9.08379 6.70714 9.33289 6.95556C9.582 7.32818 9.95565 7.45238 10.4539 7.45238C10.9521 7.45238 11.3257 7.20397 11.5748 6.83135C11.8239 6.70714 11.9485 6.21032 11.9485 5.58929ZM10.9521 5.8377C10.9521 6.33452 10.8275 6.58294 10.4539 6.58294C10.0802 6.58294 9.95565 6.33452 9.95565 5.8377V3.47778C9.95565 2.98095 10.0802 2.73254 10.4539 2.73254C10.8275 2.73254 10.9521 2.98095 10.9521 3.47778V5.8377ZM15.685 7.45238V1.8631H14.6886V6.08611C14.4395 6.45873 14.3149 6.58294 14.0658 6.58294C13.9413 6.58294 13.8167 6.45873 13.8167 6.33452V1.8631H12.8203V6.21032C12.8203 6.58294 12.8203 6.83135 12.9449 7.07976C12.9449 7.32818 13.194 7.45238 13.5676 7.45238C13.9413 7.45238 14.3149 7.20397 14.6886 6.83135V7.45238H15.685Z" fill="white"/>
<path d="M16.1827 13.0415C15.8093 13.0415 15.6848 13.2899 15.6848 13.7867V14.2836H16.6805V13.7867C16.6805 13.2899 16.5561 13.0415 16.1827 13.0415Z" fill="white"/>
<path d="M12.5709 13.0415C12.4464 13.0415 12.1975 13.1657 12.073 13.2899V16.6435C12.1975 16.7677 12.4464 16.8919 12.5709 16.8919C12.8198 16.8919 12.9443 16.6435 12.9443 16.1467V13.7867C12.9443 13.2899 12.8198 13.0415 12.5709 13.0415Z" fill="white"/>
<path d="M18.6743 10.3091C18.4252 9.4397 17.6779 8.69446 16.9306 8.69446C14.9378 8.44604 12.8204 8.44604 10.7031 8.44604C8.58568 8.44604 6.59286 8.44604 4.47549 8.69446C3.72818 8.69446 2.98087 9.4397 2.73177 10.3091C2.48267 11.5512 2.48267 12.9175 2.48267 14.1595C2.48267 15.4016 2.48267 16.7679 2.73177 18.0099C2.98087 18.8794 3.60363 19.5004 4.47549 19.6246C6.59286 19.873 8.58568 19.873 10.7031 19.873C12.8204 19.873 14.8133 19.873 16.9306 19.6246C17.8025 19.5004 18.5498 18.8794 18.6743 18.0099C18.9235 16.7679 18.9235 15.4016 18.9235 14.1595C18.9235 12.9175 18.9235 11.5512 18.6743 10.3091ZM7.21562 11.427H5.9701V17.7615H4.84914V11.427H3.72818V10.3091H7.21562V11.427ZM10.2049 17.7615H9.20844V17.1405C8.83479 17.6373 8.46113 17.7615 8.08748 17.7615C7.71382 17.7615 7.58927 17.6373 7.46472 17.3889C7.46472 17.2647 7.34017 17.0163 7.34017 16.5195V12.1722H8.33658V16.5195C8.33658 16.6437 8.46113 16.7679 8.58568 16.7679C8.83479 16.7679 8.95934 16.6437 9.20844 16.271V12.1722H10.2049V17.7615ZM13.9414 16.0226C13.9414 16.5195 13.9414 16.8921 13.8168 17.1405C13.6923 17.5131 13.4432 17.7615 13.0695 17.7615C12.6959 17.7615 12.3222 17.5131 12.0731 17.1405V17.6373H11.0767V10.3091H12.0731V12.6691C12.4468 12.2964 12.6959 12.048 13.0695 12.048C13.4432 12.048 13.6923 12.2964 13.8168 12.6691C13.9414 12.9175 13.9414 13.2901 13.9414 13.7869V16.0226ZM17.6779 15.1532H15.6851V16.1468C15.6851 16.6437 15.8097 16.8921 16.1833 16.8921C16.4324 16.8921 16.557 16.7679 16.6815 16.5195V15.8984H17.6779V16.6437C17.6779 16.8921 17.5534 17.0163 17.4288 17.2647C17.1797 17.6373 16.8061 17.8857 16.1833 17.8857C15.6851 17.8857 15.3115 17.6373 14.9378 17.2647C14.6887 17.0163 14.5642 16.5195 14.5642 16.0226V14.1595C14.5642 13.5385 14.6887 13.1659 14.8133 12.9175C15.0624 12.5449 15.436 12.2964 16.0588 12.2964C16.557 12.2964 16.9306 12.5449 17.1797 12.9175C17.4288 13.1659 17.4288 13.6627 17.4288 14.1595V15.1532H17.6779Z" fill="white"/>
</g>
<defs>
<clipPath id="clip0_1_296">
<rect width="19.9282" height="19.873" fill="white" transform="translate(0.73877)"/>
</clipPath>
</defs>
</svg>
