<svg width="21" height="20" viewBox="0 0 21 20" fill="none" xmlns="http://www.w3.org/2000/svg">
<path d="M10.4474 7.34938C9.01897 7.34938 7.85325 8.51187 7.85325 9.93636C7.85325 11.3609 9.01897 12.5233 10.4474 12.5233C11.8759 12.5233 13.0416 11.3609 13.0416 9.93636C13.0416 8.51187 11.8759 7.34938 10.4474 7.34938ZM18.228 9.93636C18.228 8.86508 18.2377 7.80351 18.1774 6.73417C18.1171 5.4921 17.8329 4.38977 16.9222 3.48151C16.0094 2.57131 14.906 2.28991 13.6605 2.22975C12.5862 2.16958 11.5217 2.17929 10.4494 2.17929C9.37511 2.17929 8.31059 2.16958 7.23828 2.22975C5.99276 2.28991 4.88737 2.57326 3.97659 3.48151C3.06386 4.39171 2.78167 5.4921 2.72134 6.73417C2.66101 7.80545 2.67074 8.86702 2.67074 9.93636C2.67074 11.0057 2.66101 12.0692 2.72134 13.1386C2.78167 14.3806 3.06581 15.483 3.97659 16.3912C4.88932 17.3014 5.99276 17.5828 7.23828 17.643C8.31253 17.7031 9.37706 17.6934 10.4494 17.6934C11.5236 17.6934 12.5882 17.7031 13.6605 17.643C14.906 17.5828 16.0114 17.2995 16.9222 16.3912C17.8349 15.481 18.1171 14.3806 18.1774 13.1386C18.2397 12.0692 18.228 11.0076 18.228 9.93636ZM10.4474 13.9168C8.23858 13.9168 6.45594 12.1391 6.45594 9.93636C6.45594 7.73364 8.23858 5.95594 10.4474 5.95594C12.6563 5.95594 14.4389 7.73364 14.4389 9.93636C14.4389 12.1391 12.6563 13.9168 10.4474 13.9168ZM14.6024 6.72252C14.0867 6.72252 13.6702 6.30721 13.6702 5.79292C13.6702 5.27862 14.0867 4.86331 14.6024 4.86331C15.1181 4.86331 15.5346 5.27862 15.5346 5.79292C15.5347 5.91504 15.5107 6.03599 15.4639 6.14884C15.4171 6.2617 15.3485 6.36424 15.2619 6.45059C15.1753 6.53694 15.0725 6.60541 14.9593 6.65207C14.8461 6.69874 14.7248 6.72268 14.6024 6.72252Z" fill="white"></path>
</svg>
