<svg width="34" height="34" viewBox="0 0 34 34" fill="none" xmlns="http://www.w3.org/2000/svg">
<path fill-rule="evenodd" clip-rule="evenodd" d="M17 3.1875C14.4639 3.1875 12.0316 4.19497 10.2383 5.98829C8.44497 7.78161 7.4375 10.2139 7.4375 12.75H5.3125C5.3125 9.65028 6.54386 6.67752 8.73569 4.48569C10.9275 2.29386 13.9003 1.0625 17 1.0625C20.0997 1.0625 23.0725 2.29386 25.2643 4.48569C27.4561 6.67752 28.6875 9.65028 28.6875 12.75H26.5625C26.5625 10.2139 25.555 7.78161 23.7617 5.98829C21.9684 4.19497 19.5361 3.1875 17 3.1875Z" fill="#323334"></path>
<path fill-rule="evenodd" clip-rule="evenodd" d="M3.42133 12.0849C3.52091 11.9608 3.64707 11.8607 3.79051 11.7919C3.93395 11.7232 4.091 11.6875 4.25008 11.6875H29.7501C29.9091 11.6876 30.066 11.7233 30.2093 11.7921C30.3527 11.8609 30.4787 11.9609 30.5783 12.0849C30.6778 12.2089 30.7482 12.3537 30.7843 12.5085C30.8205 12.6633 30.8214 12.8243 30.7871 12.9795L26.9068 30.4406C26.7497 31.1486 26.3558 31.7819 25.7902 32.2359C25.2246 32.6898 24.5211 32.9373 23.7958 32.9375H10.2043C9.47908 32.9373 8.77557 32.6898 8.20996 32.2359C7.64435 31.7819 7.25046 31.1486 7.09333 30.4406L3.21308 12.9795C3.17898 12.8246 3.17999 12.6641 3.21603 12.5096C3.25206 12.3552 3.32221 12.2108 3.42133 12.087V12.0849ZM5.57395 13.8125L9.16733 29.9795C9.21957 30.2156 9.3508 30.4269 9.53935 30.5783C9.7279 30.7298 9.96248 30.8124 10.2043 30.8125H23.7958C24.0377 30.8124 24.2722 30.7298 24.4608 30.5783C24.6493 30.4269 24.7806 30.2156 24.8328 29.9795L28.4241 13.8125H5.57608H5.57395Z" fill="#323334"></path>
</svg>
